<?xml version="1.0" encoding="utf-8"?><!DOCTYPE svg PUBLIC "-//W3C//DTD SVG 1.1//EN" "http://www.w3.org/Graphics/SVG/1.1/DTD/svg11.dtd"><svg version="1.1" xmlns="http://www.w3.org/2000/svg" xmlns:xlink="http://www.w3.org/1999/xlink" viewBox="0 0 900 750" width="900" height="750"><g class="svg-logo"><g class="base"><g class="logo-element x"><line fill="none" stroke="#000" stroke-width="10" x1="252.823" y1="177.823" x2="647.178" y2="572.176"></line><line fill="none" stroke="#000" stroke-width="10" x1="252.823" y1="572.176" x2="647.178" y2="177.823"></line></g></g><g class="swag"><g class="logo-element x-icon-top-camera"><path d="M463.631,238.291c0,6.978-5.656,12.632-12.63,12.632 c-6.977,0-12.638-5.654-12.638-12.632c0-6.977,5.661-12.636,12.638-12.636C457.975,225.654,463.631,231.313,463.631,238.291z"></path><path d="M467.939,228.153c1.777,2.964,2.8,6.431,2.8,10.137 c0,10.904-8.838,19.741-19.738,19.741c-10.906,0-19.741-8.837-19.741-19.741c0-3.707,1.023-7.173,2.8-10.137h-27.216v29.457 c0,4.785,3.881,8.664,8.664,8.664h70.983c4.785,0,8.661-3.879,8.661-8.664v-29.457H467.939z"></path><path d="M486.491,207.766h-6.903v-1.59h-6.352v1.59h-6.444l-3.467-7.716h-24.651 l-3.467,7.716h-19.699c-4.783,0-8.664,3.879-8.664,8.661v7.781h30.325c3.565-3.497,8.443-5.658,13.833-5.658 c5.384,0,10.265,2.161,13.827,5.658h30.325v-7.781C495.152,211.645,491.276,207.766,486.491,207.766z M458.291,206.175h-14.583 v-3.753h14.583V206.175z"></path></g><g class="logo-element x-icon-bottom-glasses"><path d="M522.62,506.784c-0.374,3.005,0.505,4.457,0,6.698 c-0.869,3.839-3.641,4.185-4.913,7.145c-2.776,6.464-2.409,12.57-5.357,17.86c-8.174,14.66-37.051,15.861-48.224,2.232 c-2.041-2.487-4.136-6.486-5.806-10.715c-2.281-5.774-2.41-12.909-9.823-10.716c-2.952,0.872-3.056,5.977-4.912,10.716 c-1.859,4.746-7.12,12.103-10.269,14.735c-9.71,8.114-33.836,8.205-41.973-1.34c-2.023-2.371-3.415-6.762-4.912-10.716 c-1.358-3.586-1.953-7.942-3.572-11.609c-1.397-3.166-4.671-5.303-5.358-8.037c-0.688-2.73,0.106-5.045,0-7.591 c14.797-3.843,30.501-5.487,48.223-2.68c7.131,1.13,14.475,3.203,21.879,3.572c16.592,0.831,30.712-6.472,49.116-5.357 C506.039,501.544,514.666,503.895,522.62,506.784z M390.004,512.589c-3.416,6.782,1.87,22.243,4.465,25.897 c7.506,10.563,29.429,9.029,37.954-0.446c2.43-2.701,3.865-5.669,5.805-10.27c1.14-2.704,3.708-8.656,2.232-12.949 c-2.658-7.729-18.099-9.391-30.363-8.484C400.257,507.064,392.476,507.679,390.004,512.589z M460.554,515.714 c-1.647,6.33,4.884,18.747,7.59,21.879c8.692,10.059,30.892,11.575,38.4,0.893c2.156-3.068,2.843-6.611,4.019-12.056 c0.825-3.821,2.64-9.486,0.446-13.841c-3.21-6.374-19.799-7.476-31.256-6.252C469.981,507.382,462.182,509.451,460.554,515.714z"></path></g></g><g class="text"><g text-anchor="middle" transform="translate(453,407)" class="logo-element large-x"><path d="" fill="#000" transform="translate(0,0)"></path><path d="M161.54-2.66C161.54-1.22 162.65 0 164.10 0L164.21 0L164.54 0L186.41 0C198.62 0 208.61-9.88 208.61-22.20C208.61-31.97 202.17-40.18 193.40-43.18C197.84-46.73 200.84-52.17 200.84-58.27C200.84-69.04 192.18-77.70 181.52-77.70L164.54-77.70L164.21-77.70C162.76-77.70 161.54-76.48 161.54-75.04ZM166.98-5.44L166.98-38.96L186.41-38.96C195.62-38.96 203.06-31.41 203.17-22.20C203.06-12.88 195.62-5.44 186.41-5.44ZM166.98-44.51L166.98-72.26L181.52-72.26C189.18-72.26 195.40-66.05 195.40-58.27C195.40-50.73 189.18-44.51 181.52-44.51Z" fill="#000" transform="translate(-24,16)"></path><path d="" fill="#000" transform="translate(0,0)"></path><path d="M-95.83 0C-94.28 0-93.06-1.22-93.06-2.66C-93.06-4.22-94.28-5.44-95.83-5.44L-133.02-5.44L-133.02-75.04C-133.02-76.48-134.24-77.70-135.79-77.70C-137.24-77.70-138.46-76.48-138.46-75.04L-138.46-2.66C-138.46-1.22-137.24 0-135.79 0L-135.57 0Z" fill="#000" transform="translate(-23,16)"></path></g></g></g></svg>